<svg width="20" height="18" viewBox="0 0 20 18" fill="none" xmlns="http://www.w3.org/2000/svg">
<path fill-rule="evenodd" clip-rule="evenodd" d="M0.833008 1.49996C0.833008 1.27895 0.920805 1.06698 1.07709 0.910704C1.23337 0.754423 1.44533 0.666626 1.66634 0.666626H10.833C11.054 0.666626 11.266 0.754423 11.4223 0.910704C11.5785 1.06698 11.6663 1.27895 11.6663 1.49996V5.66663H14.9997C15.5468 5.66663 16.0887 5.7744 16.5942 5.98379C17.0997 6.19319 17.559 6.5001 17.946 6.88701C18.3329 7.27393 18.6398 7.73326 18.8492 8.23878C19.0586 8.7443 19.1663 9.28612 19.1663 9.83329V13.1666C19.1666 13.7031 18.9942 14.2254 18.6747 14.6564C18.3552 15.0874 17.9056 15.4042 17.3922 15.56C17.2393 16.0641 16.9311 16.5071 16.5116 16.8257C16.092 17.1443 15.5825 17.3222 15.0558 17.3341C14.5291 17.3459 14.0122 17.191 13.5787 16.8916C13.1453 16.5921 12.8175 16.1634 12.6422 15.6666H7.35801C7.18269 16.1634 6.85492 16.5921 6.42147 16.8916C5.98802 17.191 5.47106 17.3459 4.94437 17.3341C4.41768 17.3222 3.90818 17.1443 3.48861 16.8257C3.06904 16.5071 2.76084 16.0641 2.60801 15.56C2.09447 15.4043 1.64463 15.0876 1.32498 14.6566C1.00533 14.2256 0.832843 13.7032 0.833008 13.1666V9.83329H5.83301C6.05402 9.83329 6.26598 9.7455 6.42226 9.58922C6.57854 9.43293 6.66634 9.22097 6.66634 8.99996C6.66634 8.77895 6.57854 8.56698 6.42226 8.4107C6.26598 8.25442 6.05402 8.16663 5.83301 8.16663H0.833008V6.49996H4.16634C4.38736 6.49996 4.59932 6.41216 4.7556 6.25588C4.91188 6.0996 4.99967 5.88764 4.99967 5.66663C4.99967 5.44561 4.91188 5.23365 4.7556 5.07737C4.59932 4.92109 4.38736 4.83329 4.16634 4.83329H0.833008V1.49996ZM11.6663 14H12.6422C12.8069 13.5337 13.1063 13.1267 13.5023 12.8306C13.8984 12.5344 14.3734 12.3624 14.8672 12.3363C15.3611 12.3101 15.8516 12.431 16.2767 12.6837C16.7018 12.9364 17.0425 13.3095 17.2555 13.7558C17.4118 13.5996 17.4996 13.3876 17.4997 13.1666V9.83329C17.4997 9.17025 17.2363 8.53437 16.7674 8.06553C16.2986 7.59668 15.6627 7.33329 14.9997 7.33329H11.6663V14ZM5.83301 14.8333C5.83301 14.6123 5.74521 14.4003 5.58893 14.244C5.43265 14.0878 5.22069 14 4.99967 14C4.77866 14 4.5667 14.0878 4.41042 14.244C4.25414 14.4003 4.16634 14.6123 4.16634 14.8333C4.16634 15.0543 4.25414 15.2663 4.41042 15.4225C4.5667 15.5788 4.77866 15.6666 4.99967 15.6666C5.22069 15.6666 5.43265 15.5788 5.58893 15.4225C5.74521 15.2663 5.83301 15.0543 5.83301 14.8333ZM14.4105 14.2441C14.2542 14.4004 14.1664 14.6123 14.1663 14.8333C14.1663 15.0261 14.2331 15.2129 14.3554 15.362C14.4777 15.5111 14.6479 15.6131 14.8369 15.6508C15.026 15.6884 15.2223 15.6593 15.3924 15.5685C15.5624 15.4776 15.6957 15.3306 15.7695 15.1525C15.8433 14.9744 15.8531 14.7762 15.7972 14.5917C15.7412 14.4072 15.6231 14.2478 15.4628 14.1407C15.3025 14.0335 15.11 13.9853 14.9181 14.0041C14.7263 14.023 14.5469 14.1078 14.4105 14.2441Z" fill="#F0EADC"/>
</svg>
