<svg width="16" height="17" viewBox="0 0 16 17" fill="none" xmlns="http://www.w3.org/2000/svg">
<path fill-rule="evenodd" clip-rule="evenodd" d="M8.04403 0.222168C10.1464 0.222168 11.8831 1.82407 12.0972 3.87285L12.157 3.87356C13.3233 3.87356 14.7412 4.6481 15.2198 6.82053L15.8544 11.7324C16.082 13.3177 15.7973 14.5893 15.0067 15.5014C14.2201 16.4087 12.975 16.8888 11.4058 16.8888H4.69144C2.96781 16.8888 1.76698 16.4666 1.01978 15.5987C0.269364 14.7285 0.0184204 13.4231 0.27419 11.7196L0.898331 6.87281C1.30853 4.65052 2.80856 3.87356 3.96998 3.87356C4.07024 2.94899 4.48714 2.06942 5.14853 1.41013C5.9086 0.654885 6.95661 0.222168 8.02714 0.222168H8.04403ZM12.157 5.08002H3.96998C3.61528 5.08002 2.42973 5.22318 2.08951 7.06022L1.46858 11.8861C1.2667 13.2397 1.42274 14.2193 1.93347 14.8121C2.43777 15.3977 3.34021 15.6824 4.69144 15.6824H11.4058C12.2487 15.6824 13.3997 15.5143 14.0946 14.7116C14.6463 14.0754 14.8362 13.1279 14.6592 11.8949L14.0326 7.02724C13.7656 5.82802 13.061 5.08002 12.157 5.08002ZM10.3898 7.31928C10.7228 7.31928 11.0115 7.58953 11.0115 7.92251C11.0115 8.2555 10.7598 8.52574 10.4268 8.52574H10.3898C10.0568 8.52574 9.78656 8.2555 9.78656 7.92251C9.78656 7.58953 10.0568 7.31928 10.3898 7.31928ZM5.7006 7.31928C6.03359 7.31928 6.32233 7.58953 6.32233 7.92251C6.32233 8.2555 6.06978 8.52574 5.7368 8.52574H5.7006C5.36762 8.52574 5.09737 8.2555 5.09737 7.92251C5.09737 7.58953 5.36762 7.31928 5.7006 7.31928ZM8.04162 1.42863H8.02955C7.2727 1.42863 6.53515 1.73346 6.00029 2.26511C5.56459 2.69884 5.27964 3.26904 5.18747 3.87318L10.8814 3.87341C10.6747 2.49142 9.47963 1.42863 8.04162 1.42863Z" fill="#2F2F2F"/>
</svg>
