<svg width="17" height="13" viewBox="0 0 17 13" fill="none" xmlns="http://www.w3.org/2000/svg">
<path d="M1.5 0.375026C1.33424 0.375026 1.17527 0.440875 1.05806 0.558085C0.940848 0.675295 0.875 0.834266 0.875 1.00003C0.875 1.16579 0.940848 1.32476 1.05806 1.44197C1.17527 1.55918 1.33424 1.62503 1.5 1.62503H2.8875L4.5275 8.18753C4.66687 8.74378 5.165 9.12503 5.73812 9.12503H13.5319C14.0962 9.12503 14.5756 8.75003 14.7238 8.20628L16.3438 2.25003H15.035L13.5312 7.87503H5.7375L4.09812 1.31253C4.03041 1.04329 3.8743 0.804575 3.6548 0.634597C3.4353 0.46462 3.16511 0.373217 2.8875 0.375026H1.5ZM12.75 9.12503C11.7219 9.12503 10.875 9.9719 10.875 11C10.875 12.0282 11.7219 12.875 12.75 12.875C13.7781 12.875 14.625 12.0282 14.625 11C14.625 9.9719 13.7781 9.12503 12.75 9.12503ZM7.125 9.12503C6.09688 9.12503 5.25 9.9719 5.25 11C5.25 12.0282 6.09688 12.875 7.125 12.875C8.15312 12.875 9 12.0282 9 11C9 9.9719 8.15312 9.12503 7.125 9.12503ZM9 0.375026V3.50003H7.125L9.625 6.00003L12.125 3.50003H10.25V0.375026H9ZM7.125 10.375C7.4775 10.375 7.75 10.6475 7.75 11C7.75 11.3525 7.4775 11.625 7.125 11.625C6.7725 11.625 6.5 11.3525 6.5 11C6.5 10.6475 6.7725 10.375 7.125 10.375ZM12.75 10.375C13.1025 10.375 13.375 10.6475 13.375 11C13.375 11.3525 13.1025 11.625 12.75 11.625C12.3975 11.625 12.125 11.3525 12.125 11C12.125 10.6475 12.3975 10.375 12.75 10.375Z" fill="#754F23"/>
</svg>
