<svg width="21" height="21" viewBox="0 0 21 21" fill="none" xmlns="http://www.w3.org/2000/svg">
<path d="M5 2.5C4.58333 2.5 4.25 2.66667 4 3L2.91667 4.33333C2.66667 4.66667 2.5 5 2.5 5.41667V15.8333C2.5 16.75 3.25 17.5 4.16667 17.5H11.0833C10.9167 17 10.8333 16.4167 10.8333 15.8333C10.8333 13.0833 13.0833 10.8333 15.8333 10.8333C16.4167 10.8333 17 10.9167 17.5 11.0833V5.41667C17.5 5 17.3333 4.66667 17.0833 4.33333L15.9167 2.91667C15.75 2.66667 15.4167 2.5 15 2.5H5ZM4.91667 3.33333H14.9167L15.6667 4.16667H4.25L4.91667 3.33333ZM5 12.5H10V15H5V12.5ZM17.75 13.1667L14.75 16.1667L13.4167 14.8333L12.5 15.8333L14.8333 18.3333L18.8333 14.3333L17.75 13.1667Z" fill="#F0EADC"/>
<ellipse cx="16" cy="15.5" rx="4" ry="3.5" fill="#C1AEA0"/>
<path d="M13.8789 17.1202L17.1202 13.8798M13.8789 13.8798L17.1202 17.1202" stroke="#F0EADC" stroke-linecap="round"/>
</svg>
