<svg xmlns="http://www.w3.org/2000/svg" width="23" height="23" viewBox="0 0 23 23" fill="none">
<g clip-path="url(#clip0_310_870)">
<path d="M5.71456 2.85718C5.23837 2.85718 4.85742 3.04765 4.57171 3.42861L3.33361 4.95242C3.0479 5.33337 2.85742 5.71432 2.85742 6.19051V18.0953C2.85742 19.1429 3.71456 20 4.76218 20H12.6669C12.4765 19.4286 12.3812 18.7619 12.3812 18.0953C12.3812 14.9524 14.9527 12.381 18.0955 12.381C18.7622 12.381 19.4289 12.4762 20.0003 12.6667V6.19051C20.0003 5.71432 19.8098 5.33337 19.5241 4.95242L18.1908 3.33337C18.0003 3.04765 17.6193 2.85718 17.1431 2.85718H5.71456ZM5.61933 3.80956H17.0479L17.905 4.76194H4.85742L5.61933 3.80956ZM5.71456 14.2857H11.4289V17.1429H5.71456V14.2857ZM20.286 15.0477L16.8574 18.4762L15.3336 16.9524L14.286 18.0953L16.9527 20.9524L21.5241 16.381L20.286 15.0477Z" fill="#D13131"/>
<circle cx="18.2139" cy="18.2142" r="4.5" fill="#D13131"/>
</g>
<path d="M17 19.5L19.5 17M17 17L19.5 19.5" stroke="#F0EADC" stroke-linecap="round"/>
<defs>
<clipPath id="clip0_310_870">
<rect width="22.8571" height="22.8571" fill="white"/>
</clipPath>
</defs>
</svg>