<svg width="18" height="18" viewBox="0 0 18 18" fill="none" xmlns="http://www.w3.org/2000/svg">
<g opacity="0.8">
<path d="M10.125 12C10.125 12.2984 10.0065 12.5845 9.7955 12.7955C9.58452 13.0065 9.29837 13.125 9 13.125C8.70163 13.125 8.41548 13.0065 8.2045 12.7955C7.99353 12.5845 7.875 12.2984 7.875 12C7.875 11.7016 7.99353 11.4155 8.2045 11.2045C8.41548 10.9935 8.70163 10.875 9 10.875C9.29837 10.875 9.58452 10.9935 9.7955 11.2045C10.0065 11.4155 10.125 11.7016 10.125 12Z" fill="#2F2F2F"/>
<path d="M10.7603 0.494995L13.1453 3.837L14.718 3.30075L16.1535 7.5H16.875V16.5H1.125V7.5H1.5075V7.4925L1.9935 7.497L10.7603 0.494995ZM7.04775 7.5H14.5687L13.791 5.22525L12.6495 5.5905L7.04775 7.5ZM5.87925 6.31275L11.6625 4.3425L10.4595 2.655L5.87925 6.31275ZM4.125 9H2.625V10.5C3.02282 10.5 3.40436 10.342 3.68566 10.0607C3.96696 9.77935 4.125 9.39782 4.125 9ZM11.625 12C11.625 11.6553 11.5571 11.3139 11.4252 10.9955C11.2933 10.677 11.0999 10.3876 10.8562 10.1438C10.6124 9.90009 10.323 9.70673 10.0045 9.57481C9.68606 9.44289 9.34472 9.375 9 9.375C8.65528 9.375 8.31394 9.44289 7.99546 9.57481C7.67698 9.70673 7.3876 9.90009 7.14384 10.1438C6.90009 10.3876 6.70673 10.677 6.57482 10.9955C6.4429 11.3139 6.375 11.6553 6.375 12C6.375 12.6962 6.65156 13.3639 7.14384 13.8562C7.63613 14.3484 8.30381 14.625 9 14.625C9.69619 14.625 10.3639 14.3484 10.8562 13.8562C11.3484 13.3639 11.625 12.6962 11.625 12ZM15.375 15V13.5C14.9772 13.5 14.5956 13.658 14.3143 13.9393C14.033 14.2206 13.875 14.6022 13.875 15H15.375ZM13.875 9C13.875 9.39782 14.033 9.77935 14.3143 10.0607C14.5956 10.342 14.9772 10.5 15.375 10.5V9H13.875ZM2.625 15H4.125C4.125 14.6022 3.96696 14.2206 3.68566 13.9393C3.40436 13.658 3.02282 13.5 2.625 13.5V15Z" fill="#2F2F2F"/>
</g>
</svg>
