<svg width="17" height="17" viewBox="0 0 17 17" fill="none" xmlns="http://www.w3.org/2000/svg">
<path d="M3 0.5C2.58333 0.5 2.25 0.666667 2 1L0.916667 2.33333C0.666667 2.66667 0.5 3 0.5 3.41667V13.8333C0.5 14.75 1.25 15.5 2.16667 15.5H9.08333C8.91667 15 8.83333 14.4167 8.83333 13.8333C8.83333 11.0833 11.0833 8.83333 13.8333 8.83333C14.4167 8.83333 15 8.91667 15.5 9.08333V3.41667C15.5 3 15.3333 2.66667 15.0833 2.33333L13.9167 0.916667C13.75 0.666667 13.4167 0.5 13 0.5H3ZM2.91667 1.33333H12.9167L13.6667 2.16667H2.25L2.91667 1.33333ZM3 10.5H8V13H3V10.5ZM15.75 11.1667L12.75 14.1667L11.4167 12.8333L10.5 13.8333L12.8333 16.3333L16.8333 12.3333L15.75 11.1667Z" fill="#F0EADC"/>
</svg>
