<svg width="30" height="30" viewBox="0 0 30 30" fill="none" xmlns="http://www.w3.org/2000/svg">
<path d="M13.0279 2.49866C13.2778 2.22411 13.5823 2.00477 13.9219 1.85468C14.2614 1.7046 14.6286 1.62708 14.9999 1.62708C15.3711 1.62708 15.7383 1.7046 16.0779 1.85468C16.4175 2.00477 16.722 2.22411 16.9719 2.49866L18.3319 3.99199C18.5959 4.28188 18.9207 4.50996 19.283 4.66C19.6453 4.81003 20.0362 4.87831 20.4279 4.85999L22.4452 4.76666C22.8159 4.74919 23.1862 4.8093 23.5323 4.94312C23.8785 5.07695 24.1929 5.28156 24.4554 5.54385C24.718 5.80614 24.9229 6.12035 25.057 6.46637C25.1912 6.81239 25.2516 7.1826 25.2345 7.55332L25.1399 9.57199C25.1215 9.96369 25.1898 10.3546 25.3399 10.7169C25.4899 11.0792 25.718 11.4039 26.0079 11.668L27.5012 13.028C27.7757 13.2779 27.9951 13.5824 28.1452 13.922C28.2953 14.2616 28.3728 14.6287 28.3728 15C28.3728 15.3713 28.2953 15.7384 28.1452 16.078C27.9951 16.4176 27.7757 16.7221 27.5012 16.972L26.0079 18.332C25.718 18.5961 25.4899 18.9208 25.3399 19.2831C25.1898 19.6454 25.1215 20.0363 25.1399 20.428L25.2332 22.4453C25.2507 22.816 25.1906 23.1863 25.0567 23.5324C24.9229 23.8786 24.7183 24.193 24.456 24.4555C24.1937 24.7181 23.8795 24.923 23.5335 25.0572C23.1875 25.1913 22.8173 25.2518 22.4465 25.2347L20.4279 25.14C20.0362 25.1217 19.6453 25.19 19.283 25.34C18.9207 25.49 18.5959 25.7181 18.3319 26.008L16.9719 27.5013C16.722 27.7759 16.4175 27.9952 16.0779 28.1453C15.7383 28.2954 15.3711 28.3729 14.9999 28.3729C14.6286 28.3729 14.2614 28.2954 13.9219 28.1453C13.5823 27.9952 13.2778 27.7759 13.0279 27.5013L11.6679 26.008C11.4038 25.7181 11.0791 25.49 10.7168 25.34C10.3545 25.19 9.96357 25.1217 9.57187 25.14L7.55454 25.2333C7.18383 25.2508 6.81356 25.1907 6.46741 25.0569C6.12126 24.923 5.80686 24.7184 5.54432 24.4561C5.28177 24.1938 5.07687 23.8796 4.94271 23.5336C4.80855 23.1876 4.74809 22.8174 4.7652 22.4467L4.85987 20.428C4.87819 20.0363 4.80991 19.6454 4.65987 19.2831C4.50984 18.9208 4.28176 18.5961 3.99187 18.332L2.49854 16.972C2.22399 16.7221 2.00465 16.4176 1.85456 16.078C1.70448 15.7384 1.62695 15.3713 1.62695 15C1.62695 14.6287 1.70448 14.2616 1.85456 13.922C2.00465 13.5824 2.22399 13.2779 2.49854 13.028L3.99187 11.668C4.28176 11.4039 4.50984 11.0792 4.65987 10.7169C4.80991 10.3546 4.87819 9.96369 4.85987 9.57199L4.76654 7.55466C4.74907 7.18395 4.80917 6.81368 4.943 6.46753C5.07683 6.12139 5.28143 5.80698 5.54373 5.54444C5.80602 5.28189 6.12023 5.07699 6.46625 4.94283C6.81227 4.80867 7.18248 4.74821 7.5532 4.76532L9.57187 4.85999C9.96357 4.87831 10.3545 4.81003 10.7168 4.66C11.0791 4.50996 11.4038 4.28188 11.6679 3.99199L13.0279 2.49866Z" stroke="#2F2F2F" stroke-opacity="0.8" stroke-width="3"/>
<path d="M11 15L13.6667 17.6666L19 12.3333" stroke="#2F2F2F" stroke-opacity="0.8" stroke-width="3" stroke-linecap="round" stroke-linejoin="round"/>
</svg>
