<svg width="28" height="32" viewBox="0 0 28 32" fill="none" xmlns="http://www.w3.org/2000/svg">
<path d="M14.0003 0.58667L27.3337 5.25334V16C27.3337 21.5027 23.9563 25.3493 20.8057 27.7373C18.9051 29.166 16.8194 30.3299 14.6057 31.1973L14.4897 31.2413L14.4563 31.2533L14.447 31.256L14.443 31.2573C14.443 31.2573 14.4403 31.2573 14.0003 30L13.559 31.2587L13.5537 31.256L13.5443 31.2533L13.511 31.24L13.395 31.1973C12.7661 30.9542 12.1478 30.6846 11.5417 30.3893C10.0115 29.646 8.55597 28.758 7.19499 27.7373C4.04566 25.3493 0.666992 21.5027 0.666992 16V5.25334L14.0003 0.58667ZM14.0003 30L13.559 31.2587L14.0003 31.4133L14.4417 31.2587L14.0003 30ZM14.0003 28.5707L14.0123 28.5653C15.8572 27.8028 17.5985 26.8105 19.195 25.612C22.0457 23.4533 24.667 20.2973 24.667 16V7.14667L14.0003 3.41334L3.33366 7.14667V16C3.33366 20.2973 5.95499 23.4507 8.80566 25.6133C10.4057 26.8141 12.1511 27.8078 14.0003 28.5707ZM22.0963 11.124L12.6683 20.552L7.01099 14.896L8.89766 13.0093L12.667 16.7813L20.2097 9.23867L22.0963 11.124Z" fill="#2F2F2F" fill-opacity="0.8"/>
</svg>
