<svg width="14" height="13" viewBox="0 0 14 13" fill="none" xmlns="http://www.w3.org/2000/svg">
<path d="M2.7793 0.833298H5.23296C5.36756 0.833339 5.49713 0.884471 5.59548 0.976362C5.69384 1.06825 5.75364 1.19405 5.76282 1.32834C5.77199 1.46262 5.72985 1.59539 5.64491 1.6998C5.55997 1.80421 5.43856 1.87249 5.30521 1.89084L5.23296 1.8958H2.7793C2.37557 1.89574 1.98687 2.0489 1.6917 2.32434C1.39653 2.59979 1.2169 2.97699 1.18909 3.37976L1.18555 3.48955V10.2187C1.18568 10.6224 1.33902 11.0111 1.61459 11.3061C1.89017 11.6011 2.26744 11.7806 2.67021 11.8082L2.7793 11.8125H9.50846C9.91243 11.8127 10.3014 11.6595 10.5967 11.3839C10.8921 11.1083 11.0717 10.7308 11.0994 10.3278L11.1029 10.2187V9.86596C11.103 9.73137 11.1541 9.6018 11.246 9.50344C11.3379 9.40509 11.4637 9.34529 11.598 9.33611C11.7322 9.32694 11.865 9.36908 11.9694 9.45402C12.0738 9.53896 12.1421 9.66037 12.1605 9.79371L12.1654 9.86596V10.2187C12.1653 10.8987 11.9044 11.5528 11.4364 12.0461C10.9685 12.5395 10.3292 12.8346 9.65013 12.8707L9.50846 12.875H2.7793C2.09918 12.875 1.44496 12.6142 0.951432 12.1462C0.457906 11.6783 0.16268 11.0388 0.126589 10.3597L0.123047 10.218V3.48884C0.123167 2.80896 0.383977 2.15502 0.85177 1.66166C1.31956 1.1683 1.95872 0.8731 2.63763 0.836839L2.7793 0.833298ZM8.27171 2.6183V0.656214C8.27165 0.558497 8.29854 0.462656 8.34943 0.379233C8.40032 0.295811 8.47323 0.22804 8.56014 0.183376C8.64705 0.138711 8.7446 0.118884 8.84205 0.126074C8.93951 0.133265 9.03309 0.167194 9.1125 0.224131L9.17059 0.272298L13.417 4.34521C13.6154 4.53576 13.6331 4.84105 13.4709 5.05213L13.417 5.11234L9.17059 9.18667C9.10008 9.25439 9.01226 9.30134 8.91679 9.32235C8.82131 9.34336 8.7219 9.33762 8.62948 9.30577C8.53706 9.27391 8.45522 9.21717 8.39297 9.14179C8.33072 9.06642 8.29048 8.97532 8.27667 8.87855L8.27171 8.80276V6.87255L8.02876 6.8938C6.32876 7.07088 4.69959 7.83659 3.13063 9.20296C2.7623 9.52384 2.19421 9.22067 2.25442 8.73688C2.72546 4.96855 4.69605 2.89242 8.05992 2.63176L8.27171 2.6183ZM9.33421 1.90146V3.13538C9.33421 3.27628 9.27824 3.4114 9.17861 3.51103C9.07899 3.61066 8.94386 3.66663 8.80296 3.66663C6.05959 3.66663 4.35888 4.8538 3.62434 7.31951L3.56767 7.51642L3.81771 7.34855C5.40155 6.31367 7.06613 5.79163 8.80225 5.79163C8.93074 5.79166 9.05486 5.83825 9.15162 5.92277C9.24839 6.0073 9.31124 6.12403 9.32855 6.25134L9.3335 6.32288V7.55751L12.2816 4.72913L9.33421 1.90146Z" fill="black"/>
</svg>
