<svg width="30" height="24" viewBox="0 0 30 24" fill="none" xmlns="http://www.w3.org/2000/svg">
<path fill-rule="evenodd" clip-rule="evenodd" d="M5.59932 17.2658C6.32446 16.5407 7.30796 16.1333 8.33346 16.1333C9.35897 16.1333 10.3425 16.5407 11.0676 17.2658C11.7927 17.991 12.2001 18.9745 12.2001 20C12.2001 21.0255 11.7927 22.009 11.0676 22.7341C10.3425 23.4593 9.35897 23.8666 8.33346 23.8666C7.30796 23.8666 6.32446 23.4593 5.59932 22.7341C4.87418 22.009 4.4668 21.0255 4.4668 20C4.4668 18.9745 4.87418 17.991 5.59932 17.2658ZM8.33346 18.5333C7.94448 18.5333 7.57143 18.6878 7.29637 18.9629C7.02132 19.2379 6.8668 19.611 6.8668 20C6.8668 20.389 7.02132 20.762 7.29637 21.0371C7.57143 21.3121 7.94448 21.4666 8.33346 21.4666C8.72245 21.4666 9.0955 21.3121 9.37055 21.0371C9.64561 20.762 9.80013 20.389 9.80013 20C9.80013 19.611 9.64561 19.2379 9.37055 18.9629C9.0955 18.6878 8.72245 18.5333 8.33346 18.5333ZM18.9327 17.2658C19.6578 16.5407 20.6413 16.1333 21.6668 16.1333C22.6923 16.1333 23.6758 16.5407 24.4009 17.2658C25.1261 17.991 25.5335 18.9745 25.5335 20C25.5335 21.0255 25.1261 22.009 24.4009 22.7341C23.6758 23.4593 22.6923 23.8666 21.6668 23.8666C20.6413 23.8666 19.6578 23.4593 18.9327 22.7341C18.2075 22.009 17.8001 21.0255 17.8001 20C17.8001 18.9745 18.2075 17.991 18.9327 17.2658ZM21.6668 18.5333C21.2778 18.5333 20.9048 18.6878 20.6297 18.9629C20.3547 19.2379 20.2001 19.611 20.2001 20C20.2001 20.389 20.3547 20.762 20.6297 21.0371C20.9048 21.3121 21.2778 21.4666 21.6668 21.4666C22.0558 21.4666 22.4288 21.3121 22.7039 21.0371C22.9789 20.762 23.1335 20.389 23.1335 20C23.1335 19.611 22.9789 19.2379 22.7039 18.9629C22.4288 18.6878 22.0558 18.5333 21.6668 18.5333Z" fill="#2F2F2F" fill-opacity="0.8"/>
<path fill-rule="evenodd" clip-rule="evenodd" d="M15.1983 2.67049C14.8222 2.54815 14.3162 2.53332 12.7335 2.53332H8.33347C6.72823 2.53332 5.64479 2.53587 4.83546 2.64463C4.06052 2.74877 3.71909 2.93009 3.49133 3.15785C3.26357 3.38562 3.08225 3.72704 2.97811 4.50198C2.86935 5.31132 2.8668 6.39475 2.8668 7.99999V13.3333C2.8668 14.9386 2.86935 16.0217 2.97811 16.8308C3.08213 17.6047 3.26321 17.9468 3.49138 18.1755C3.80004 18.483 4.29978 18.6939 5.7258 18.7641C6.38774 18.7967 6.89793 19.3597 6.86535 20.0217C6.83277 20.6836 6.26974 21.1938 5.6078 21.1612C4.1099 21.0875 2.78788 20.8641 1.79514 19.8734L1.79369 19.8719C1.04611 19.1233 0.73939 18.1913 0.599495 17.1505C0.466715 16.1626 0.466753 14.917 0.466799 13.417V7.91631C0.466753 6.41628 0.466716 5.17035 0.599491 4.18233C0.73935 3.14161 1.04604 2.20903 1.79427 1.4608C2.54251 0.71256 3.47508 0.405874 4.51581 0.266015C5.50383 0.13324 6.74975 0.133277 8.24978 0.133323L12.7335 0.133324C12.8036 0.133324 12.8727 0.133287 12.9408 0.13325C14.2276 0.132553 15.1529 0.132051 15.9403 0.388068M15.1983 2.67049C15.6185 2.80704 16.0007 3.04118 16.3132 3.35361L15.1983 2.67049ZM15.9403 0.388068C16.7206 0.641672 17.4301 1.0764 18.0102 1.65656C18.3508 1.99714 18.6412 2.38219 18.8743 2.79999L20.8194 2.79999C21.7407 2.79996 22.5198 2.79994 23.1642 2.86508C23.8491 2.93431 24.4788 3.08417 25.0773 3.44208C25.6762 3.79911 26.1068 4.28258 26.4923 4.85252C26.8554 5.38931 27.2247 6.07565 27.6613 6.88682L27.6887 6.93779L29.3901 10.0978C29.4842 10.2726 29.5335 10.4681 29.5335 10.6667V13.4171C29.5335 14.9171 29.5336 16.1627 29.4008 17.1505C29.2609 18.1913 28.9542 19.1233 28.2066 19.8719L28.206 19.8725C27.2141 20.8644 25.8894 21.0875 24.3925 21.1612C23.7305 21.1938 23.1675 20.6836 23.1349 20.0217C23.1023 19.3597 23.6125 18.7967 24.2745 18.7641C25.702 18.6938 26.2015 18.4825 26.5084 18.176C26.7368 17.9473 26.9181 17.6053 27.0222 16.8308C27.1309 16.0217 27.1335 14.9386 27.1335 13.3333V11.8667H24.3335C23.6707 11.8667 23.1335 11.3294 23.1335 10.6667C23.1335 10.0039 23.6707 9.46666 24.3335 9.46666H26.3245L25.5755 8.07552C25.1041 7.19967 24.7913 6.62143 24.5043 6.19713C24.2326 5.79539 24.0384 5.61665 23.8477 5.50312L23.8456 5.5019C23.6548 5.38781 23.4052 5.30167 22.9228 5.25291C22.4133 5.2014 21.7562 5.19999 20.7615 5.19999H19.5116C19.5341 5.64996 19.5338 6.152 19.5335 6.72594C19.5335 6.79405 19.5335 6.86316 19.5335 6.93332L19.5335 6.99836C19.5335 7.75594 19.5336 8.42609 19.4697 8.97226C19.4009 9.55981 19.2446 10.1564 18.8212 10.6799L18.8199 10.6815C18.6794 10.8547 18.522 11.0119 18.3491 11.1524L18.3467 11.1544C17.8234 11.5776 17.2273 11.7341 16.6396 11.8029C16.0936 11.8668 15.4234 11.8667 14.6653 11.8667L9.6668 11.8667C9.00406 11.8667 8.4668 11.3294 8.4668 10.6667C8.4668 10.0039 9.00406 9.46666 9.6668 9.46666H14.6001C15.4432 9.46666 15.9709 9.46473 16.3607 9.41913C16.7193 9.37716 16.8078 9.31217 16.8364 9.2892C16.8813 9.25255 16.9206 9.21306 16.9555 9.17015C16.978 9.14236 17.0436 9.05489 17.0859 8.69339C17.1315 8.30347 17.1335 7.7757 17.1335 6.93332C17.1335 5.35057 17.1186 4.84463 16.9963 4.46846C16.8598 4.04825 16.6256 3.66604 16.3132 3.35361M9.80013 20C9.80013 19.3372 10.3374 18.8 11.0001 18.8H19.0001C19.6629 18.8 20.2001 19.3372 20.2001 20C20.2001 20.6627 19.6629 21.2 19.0001 21.2H11.0001C10.3374 21.2 9.80013 20.6627 9.80013 20Z" fill="#2F2F2F" fill-opacity="0.8"/>
<path fill-rule="evenodd" clip-rule="evenodd" d="M11.9413 7.54551C12.1923 7.32916 12.5712 7.35724 12.7875 7.60823C13.0039 7.85923 12.9758 8.23809 12.7248 8.45444L12.3331 7.99997L11.9413 7.54551ZM10.9358 9.97338C11.3203 9.6535 11.7654 9.27561 12.1146 8.97747C12.2912 8.82678 12.4436 8.69611 12.5519 8.60309L12.7248 8.45444C12.7248 8.45443 12.7248 8.45444 12.3331 7.99997C11.9413 7.54551 11.9413 7.5455 11.9413 7.54551L11.7702 7.69264C11.6626 7.78508 11.511 7.915 11.3355 8.06481C10.9841 8.36478 10.5384 8.74314 10.1574 9.05998C10.1501 9.06612 10.1428 9.07244 10.1357 9.07892C9.87402 9.31872 9.62072 9.55182 9.43744 9.77456C9.25398 9.9975 9.06641 10.2962 9.06641 10.6733C9.06641 11.0882 9.29344 11.4202 9.49933 11.6536C9.71032 11.8927 9.98845 12.126 10.2607 12.3456C10.6569 12.6992 11.0773 13.06 11.3986 13.3324C11.5611 13.4701 11.6988 13.5856 11.796 13.6668L11.9095 13.7615L11.9505 13.7955C12.2058 14.0068 12.5841 13.9711 12.7954 13.7158C13.0066 13.4605 12.9709 13.0823 12.7156 12.871L12.6766 12.8387L12.5655 12.7461C12.4701 12.6663 12.3345 12.5526 12.1745 12.4169C11.8539 12.1452 11.4373 11.7876 11.0488 11.4405C11.0412 11.4337 11.0335 11.4272 11.0255 11.4208C10.7456 11.1952 10.5374 11.0164 10.3992 10.8597C10.3079 10.7562 10.2788 10.6973 10.2699 10.6751C10.2788 10.6553 10.3028 10.6115 10.364 10.5371C10.4813 10.3946 10.6621 10.2243 10.9358 9.97338ZM10.265 10.6879C10.265 10.6879 10.265 10.6876 10.2652 10.6869L10.265 10.6879Z" fill="#2F2F2F" fill-opacity="0.8"/>
</svg>
