<svg width="20" height="16" viewBox="0 0 20 16" fill="none" xmlns="http://www.w3.org/2000/svg">
<path fill-rule="evenodd" clip-rule="evenodd" d="M0 13.7143C0 14.8972 0.957143 15.8572 2.14 15.8572H17.86C19.0429 15.8572 20 14.8972 20 13.7143V10.8086C20.0001 10.6516 19.9486 10.499 19.8533 10.3743C19.758 10.2496 19.6243 10.1597 19.4729 10.1186C19.008 9.992 18.5976 9.716 18.3051 9.33315C18.0125 8.9503 17.854 8.48185 17.854 8.00003C17.854 7.5182 18.0125 7.04975 18.3051 6.6669C18.5976 6.28405 19.008 6.00805 19.4729 5.88145C19.6243 5.84033 19.758 5.75047 19.8533 5.62575C19.9486 5.50103 20.0001 5.3484 20 5.19145V2.28574C20 1.10288 19.0429 0.142883 17.86 0.142883H2.14C0.957143 0.142883 0 1.10288 0 2.28574V5.18574C0.000189937 5.34344 0.0525637 5.49665 0.148953 5.62146C0.245342 5.74628 0.380328 5.83568 0.532857 5.87574C1.00268 5.9986 1.41852 6.27374 1.7153 6.65811C2.01209 7.04249 2.17308 7.51441 2.17308 8.00003C2.17308 8.48565 2.01209 8.95756 1.7153 9.34194C1.41852 9.72631 1.00268 10.0015 0.532857 10.1243C0.380328 10.1644 0.245342 10.2538 0.148953 10.3786C0.0525637 10.5034 0.000189937 10.6566 0 10.8143L0 13.7143ZM7.08857 12.2029L14.2314 5.06003C14.3908 4.89113 14.4782 4.66676 14.4749 4.43454C14.4716 4.20231 14.3779 3.98051 14.2138 3.81619C14.0497 3.65187 13.828 3.55798 13.5958 3.55443C13.3635 3.55087 13.1391 3.63795 12.97 3.79717L5.82714 10.94C5.74017 11.0219 5.67052 11.1204 5.62231 11.2298C5.57411 11.3391 5.54833 11.4569 5.5465 11.5764C5.54467 11.6958 5.56684 11.8144 5.61168 11.9252C5.65652 12.0359 5.72313 12.1365 5.80755 12.221C5.89198 12.3055 5.99251 12.3723 6.10319 12.4172C6.21387 12.4622 6.33245 12.4845 6.4519 12.4828C6.57135 12.4811 6.68925 12.4555 6.79861 12.4074C6.90797 12.3593 7.00657 12.2898 7.08857 12.2029ZM5.74429 5.14288C5.74429 4.764 5.8948 4.40064 6.1627 4.13273C6.43061 3.86482 6.79398 3.71431 7.17286 3.71431C7.55174 3.71431 7.9151 3.86482 8.18301 4.13273C8.45092 4.40064 8.60143 4.764 8.60143 5.14288C8.60143 5.52176 8.45092 5.88513 8.18301 6.15304C7.9151 6.42094 7.55174 6.57146 7.17286 6.57146C6.79398 6.57146 6.43061 6.42094 6.1627 6.15304C5.8948 5.88513 5.74429 5.52176 5.74429 5.14288ZM11.4586 10.8572C11.4586 10.4783 11.6091 10.1149 11.877 9.84702C12.1449 9.57911 12.5083 9.4286 12.8871 9.4286C13.266 9.4286 13.6294 9.57911 13.8973 9.84702C14.1652 10.1149 14.3157 10.4783 14.3157 10.8572C14.3157 11.236 14.1652 11.5994 13.8973 11.8673C13.6294 12.1352 13.266 12.2857 12.8871 12.2857C12.5083 12.2857 12.1449 12.1352 11.877 11.8673C11.6091 11.5994 11.4586 11.236 11.4586 10.8572Z" fill="#369850"/>
</svg>
