<svg width="13" height="13" viewBox="0 0 13 13" fill="none" xmlns="http://www.w3.org/2000/svg">
<path d="M8.87522 2.12517C7.01144 0.261384 3.98886 0.261383 2.12507 2.12517C0.261288 3.98896 0.261288 7.01153 2.12507 8.87532C3.77615 10.5264 6.33683 10.7128 8.19454 9.43851L10.5182 12.0377C10.9132 12.4813 11.6 12.4996 12.0193 12.0802L12.0801 12.0194C12.4995 11.6001 12.4812 10.9133 12.0376 10.5183L9.43841 8.19463C10.7147 6.3349 10.5263 3.77624 8.87522 2.12517ZM7.71643 7.71653C6.49282 8.94015 4.50748 8.94015 3.28386 7.71653C2.06025 6.49291 2.06025 4.50758 3.28386 3.28396C4.50748 2.06034 6.49282 2.06034 7.71643 3.28396C8.94208 4.5096 8.94005 6.49291 7.71643 7.71653Z" fill="#F0EADC"/>
</svg>
